<?xml version="1.0" encoding="UTF-8"?>
<!DOCTYPE svg PUBLIC "-//W3C//DTD SVG 1.1//EN" "http://www.w3.org/Graphics/SVG/1.1/DTD/svg11.dtd">
<!-- Creator: CorelDRAW (Evaluation Version) -->
<svg xmlns="http://www.w3.org/2000/svg" xml:space="preserve" width="8.5462mm" height="8.5462mm" version="1.1" style="shape-rendering:geometricPrecision; text-rendering:geometricPrecision; image-rendering:optimizeQuality; fill-rule:evenodd; clip-rule:evenodd"
viewBox="0 0 1.61 1.61"
 xmlns:xlink="http://www.w3.org/1999/xlink"
 xmlns:xodm="http://www.corel.com/coreldraw/odm/2003">
 <defs>
  <style type="text/css">
   <![CDATA[
    .str0 {stroke:#FEFEFE;stroke-width:0.01;stroke-miterlimit:22.9256}
    .fil1 {fill:none}
    .fil0 {fill:black}
   ]]>
  </style>
 </defs>
 <g id="Camada_x0020_1">
  <metadata id="CorelCorpID_0Corel-Layer"/>
  <g id="_2174975001952">
   <path class="fil0 str0" d="M0.54 1.41l0.05 0c0.02,-0.01 0.05,-0.01 0.09,-0.03 0.02,-0.01 0.05,-0.03 0.07,-0.05 0.03,-0.04 0.07,-0.1 0.09,-0.16 0.01,-0.04 -0,-0.08 0.01,-0.12 0.02,-0.07 0.1,-0.06 0.15,-0.1 0.02,-0.01 0.05,-0.04 0.05,-0.07 -0.03,0.01 -0.05,0.02 -0.08,0 -0.05,-0.03 -0.05,-0.1 -0.03,-0.15 0,-0.01 0.04,-0.05 0.05,-0.06 0.02,-0.02 0.03,-0.04 0.05,-0.05 0.01,-0.01 0.02,-0.02 0.03,-0.03l0.08 -0.08c0.02,-0.02 0.04,-0.03 0.08,-0.02 0.01,-0 0.02,-0.04 0.03,-0.05 0.03,-0.04 0.07,-0.08 0.12,-0.11 0.02,-0.01 0.04,-0.02 0.04,-0.04 -0,-0.02 -0.02,-0.04 -0.03,-0.04 -0.01,-0.01 -0.02,-0.02 -0.04,-0.04 -0.03,-0.03 -0.01,-0.01 -0.04,-0.03l-0.01 0c-0.01,0.01 -0.01,0.01 -0.02,0.02 -0.03,0.06 -0.05,0.08 -0.1,0.12 -0.02,0.01 -0.04,0.02 -0.06,0.03 0,0.02 0.01,0.02 0,0.05 -0.01,0.02 -0.02,0.03 -0.03,0.03l-0.13 0.13c-0.02,0.02 -0.04,0.04 -0.06,0.06 -0.03,-0 -0.04,-0.04 -0.06,-0.06 -0.02,-0.02 -0.06,-0.03 -0.09,-0.02 -0.03,0.01 -0.05,0.04 -0.06,0.06 -0.05,0.08 -0.04,0.12 -0.1,0.14 -0.1,0.04 -0.23,-0.01 -0.32,0.15 -0.05,0.09 -0.04,0.2 0.01,0.29 0.05,0.09 0.14,0.16 0.24,0.18 0.01,0 0.04,0.01 0.05,0.01z"/>
   <circle class="fil1 str0" cx="0.8" cy="0.8" r="0.8"/>
  </g>
 </g>
</svg>
