<?xml version="1.0" encoding="UTF-8"?>
<!DOCTYPE svg PUBLIC "-//W3C//DTD SVG 1.1//EN" "http://www.w3.org/Graphics/SVG/1.1/DTD/svg11.dtd">
<!-- Creator: CorelDRAW (Evaluation Version) -->
<svg xmlns="http://www.w3.org/2000/svg" xml:space="preserve" width="8.47mm" height="8.4688mm" version="1.1" style="shape-rendering:geometricPrecision; text-rendering:geometricPrecision; image-rendering:optimizeQuality; fill-rule:evenodd; clip-rule:evenodd"
viewBox="0 0 0.96 0.96"
 xmlns:xlink="http://www.w3.org/1999/xlink"
 xmlns:xodm="http://www.corel.com/coreldraw/odm/2003">
 <defs>
  <style type="text/css">
   <![CDATA[
    .fil0 {fill:#F3DF39}
   ]]>
  </style>
 </defs>
 <g id="Camada_x0020_1">
  <metadata id="CorelCorpID_0Corel-Layer"/>
  <g id="_2175354206704">
   <path class="fil0" d="M0.5 0l-0.04 0c-0,0 -0.02,0 -0.03,0 -0.06,0.01 -0.11,0.02 -0.16,0.05 -0.03,0.01 -0.05,0.03 -0.07,0.04 -0.01,0.01 -0.03,0.02 -0.04,0.03 -0,0 -0.01,0 -0.01,0.01 -0.01,0.01 -0.02,0.02 -0.03,0.03 -0.03,0.04 -0.06,0.08 -0.08,0.13 -0.03,0.06 -0.04,0.13 -0.04,0.2 0,0.15 0.07,0.26 0.14,0.33 0.02,0.02 0.05,0.04 0.07,0.05 0.02,0.02 0.05,0.03 0.08,0.04 0.12,0.06 0.27,0.05 0.39,0 0.04,-0.02 0.09,-0.05 0.13,-0.08 0.05,-0.05 0.08,-0.09 0.11,-0.15 0.06,-0.12 0.06,-0.27 0.01,-0.39 -0.01,-0.03 -0.03,-0.05 -0.04,-0.08 -0.01,-0.01 -0.02,-0.03 -0.03,-0.04l-0.02 -0.02c-0,-0 -0.01,-0.01 -0.01,-0.01 -0,-0.01 -0.02,-0.02 -0.03,-0.03 -0.06,-0.05 -0.14,-0.09 -0.23,-0.1 -0.01,-0 -0.02,-0 -0.03,-0 -0,-0 -0.03,-0 -0.03,-0zm-0.04 0.06c-0.07,0 -0.11,0.02 -0.17,0.04 -0.02,0.01 -0.05,0.03 -0.06,0.04l-0.04 0.04c-0,0 -0.01,0.01 -0.01,0.01l-0.02 0.03c-0.06,0.08 -0.09,0.18 -0.09,0.28 0.01,0.22 0.2,0.41 0.44,0.4 0.22,-0.01 0.41,-0.2 0.4,-0.44 -0,-0.09 -0.04,-0.17 -0.08,-0.23 -0.01,-0.01 -0.02,-0.02 -0.02,-0.03 -0.02,-0.02 -0.06,-0.06 -0.09,-0.07 -0.02,-0.01 -0.04,-0.03 -0.07,-0.04 -0.05,-0.02 -0.12,-0.03 -0.18,-0.03z"/>
   <path class="fil0" d="M0.73 0.27c-0.02,0 -0.04,0.01 -0.05,0.02 -0.01,0.01 -0.1,0.1 -0.11,0.11 -0.05,0.05 -0.1,0.1 -0.14,0.14 -0.01,0.01 -0.14,0.14 -0.14,0.14 -0.03,0.04 -0.03,0.09 0,0.13 0.02,0.02 0.05,0.03 0.08,0.03 0.02,-0 0.04,-0.01 0.05,-0.02 0.01,-0.01 0.09,-0.09 0.11,-0.11l0.28 -0.28c0.07,-0.07 0.03,-0.18 -0.07,-0.17zm-0.13 -0.14c-0.02,0 -0.04,0.01 -0.05,0.02 -0.01,0.01 -0.01,0.01 -0.02,0.02l-0.38 0.38c-0.02,0.02 -0.03,0.07 -0.02,0.11 0.01,0.03 0.04,0.06 0.09,0.05 0.05,-0 0.07,-0.03 0.09,-0.05l0.34 -0.34c0.02,-0.02 0.04,-0.04 0.04,-0.07 0.01,-0.06 -0.03,-0.12 -0.1,-0.11zm-0.09 0.43c-0.04,0.01 -0.03,0.07 0.01,0.06 0.04,-0.01 0.03,-0.07 -0.01,-0.06zm0.08 -0.08c-0.04,0.01 -0.03,0.07 0.01,0.06 0.04,-0.01 0.03,-0.07 -0.01,-0.06zm-0.38 0.1c-0.02,0 -0.03,0.02 -0.02,0.04 0,0.01 0.02,0.03 0.04,0.02 0.04,-0.01 0.02,-0.07 -0.02,-0.06zm0.22 0.06c-0.02,0 -0.03,0.02 -0.02,0.04 0,0.01 0.02,0.03 0.04,0.02 0.04,-0.01 0.03,-0.07 -0.01,-0.06zm0.02 -0.3c-0.02,0 -0.03,0.02 -0.02,0.04 0,0.01 0.02,0.03 0.04,0.02 0.04,-0.01 0.03,-0.07 -0.01,-0.06zm0.08 -0.08c-0.04,0.01 -0.03,0.07 0.01,0.06 0.01,-0 0.03,-0.02 0.02,-0.04 -0,-0.01 -0.02,-0.03 -0.04,-0.02zm-0.18 0.46c-0.02,0 -0.03,0.02 -0.03,0.04 0.01,0.04 0.07,0.03 0.06,-0.01 -0,-0.01 -0.02,-0.03 -0.03,-0.03zm0.26 -0.53c-0.04,0.01 -0.03,0.07 0.01,0.06 0.01,-0 0.03,-0.02 0.02,-0.04 -0,-0.01 -0.02,-0.03 -0.04,-0.02zm-0.23 0.23c-0.04,0.01 -0.03,0.07 0.01,0.06 0.01,-0 0.03,-0.02 0.02,-0.03 -0,-0.01 -0.02,-0.03 -0.03,-0.03zm-0.08 0.08c-0.04,0.01 -0.03,0.07 0.01,0.06 0.02,-0 0.03,-0.02 0.03,-0.03 -0,-0.02 -0.02,-0.03 -0.03,-0.03zm0.38 -0.1c-0.04,0 -0.03,0.07 0.01,0.06 0.02,-0 0.03,-0.02 0.03,-0.03 -0,-0.02 -0.02,-0.03 -0.03,-0.03zm0.07 -0.07c-0.04,0.01 -0.03,0.07 0.01,0.06 0.02,-0 0.03,-0.02 0.03,-0.03 -0,-0.01 -0.02,-0.03 -0.03,-0.03z"/>
  </g>
 </g>
</svg>
