<?xml version="1.0" encoding="UTF-8"?>
<!DOCTYPE svg PUBLIC "-//W3C//DTD SVG 1.1//EN" "http://www.w3.org/Graphics/SVG/1.1/DTD/svg11.dtd">
<!-- Creator: CorelDRAW (Evaluation Version) -->
<svg xmlns="http://www.w3.org/2000/svg" xml:space="preserve" width="45.738mm" height="9.6542mm" version="1.1" style="shape-rendering:geometricPrecision; text-rendering:geometricPrecision; image-rendering:optimizeQuality; fill-rule:evenodd; clip-rule:evenodd"
viewBox="0 0 48.14 10.16"
 xmlns:xlink="http://www.w3.org/1999/xlink"
 xmlns:xodm="http://www.corel.com/coreldraw/odm/2003">
 <defs>
  <style type="text/css">
   <![CDATA[
    .str0 {stroke:#EBEBEB;stroke-width:0.56;stroke-miterlimit:22.9256}
    .fil0 {fill:#EBEBEB;fill-rule:nonzero}
   ]]>
  </style>
 </defs>
 <g id="Camada_x0020_1">
  <metadata id="CorelCorpID_0Corel-Layer"/>
  <path class="fil0 str0" d="M0.28 5.11c0,-0.83 0.19,-1.48 0.57,-1.97 0.38,-0.49 0.89,-0.73 1.52,-0.73 0.65,0 1.15,0.23 1.51,0.69l0.05 -0.58 0.83 0 0 5.17c0,0.69 -0.2,1.22 -0.61,1.62 -0.41,0.39 -0.95,0.59 -1.64,0.59 -0.38,0 -0.76,-0.08 -1.12,-0.24 -0.36,-0.16 -0.64,-0.39 -0.84,-0.67l0.47 -0.54c0.39,0.48 0.86,0.72 1.42,0.72 0.44,0 0.78,-0.12 1.03,-0.37 0.25,-0.25 0.37,-0.6 0.37,-1.04l0 -0.45c-0.36,0.42 -0.86,0.63 -1.48,0.63 -0.62,0 -1.12,-0.25 -1.51,-0.75 -0.38,-0.5 -0.57,-1.18 -0.57,-2.04zm0.91 0.1c0,0.6 0.12,1.06 0.37,1.41 0.24,0.34 0.59,0.51 1.03,0.51 0.57,0 0.99,-0.26 1.26,-0.78l0 -2.42c-0.28,-0.5 -0.69,-0.76 -1.25,-0.76 -0.44,0 -0.79,0.17 -1.03,0.51 -0.25,0.34 -0.37,0.85 -0.37,1.52zm8.2 2.07c-0.35,0.41 -0.87,0.62 -1.55,0.62 -0.56,0 -0.99,-0.16 -1.29,-0.49 -0.3,-0.33 -0.44,-0.81 -0.45,-1.46l0 -3.45 0.91 0 0 3.42c0,0.8 0.33,1.2 0.98,1.2 0.69,0 1.15,-0.26 1.38,-0.77l0 -3.85 0.91 0 0 5.29 -0.86 0 -0.02 -0.52zm3.24 0.52l-0.91 0 0 -5.29 0.91 0 0 5.29zm-0.98 -6.7c0,-0.15 0.05,-0.27 0.13,-0.37 0.09,-0.1 0.22,-0.15 0.4,-0.15 0.18,0 0.31,0.05 0.4,0.15 0.09,0.1 0.14,0.23 0.14,0.37 0,0.15 -0.05,0.27 -0.14,0.37 -0.09,0.1 -0.22,0.15 -0.4,0.15 -0.18,0 -0.31,-0.05 -0.4,-0.15 -0.09,-0.1 -0.13,-0.22 -0.13,-0.37zm3.66 0.13l0 1.28 0.99 0 0 0.7 -0.99 0 0 3.28c0,0.21 0.04,0.37 0.13,0.48 0.09,0.11 0.24,0.16 0.45,0.16 0.11,0 0.25,-0.02 0.43,-0.06l0 0.73c-0.24,0.06 -0.47,0.1 -0.7,0.1 -0.4,0 -0.71,-0.12 -0.92,-0.37 -0.21,-0.24 -0.31,-0.59 -0.31,-1.04l0 -3.28 -0.97 0 0 -0.7 0.97 0 0 -1.28 0.91 0zm5.31 6.58c-0.05,-0.1 -0.09,-0.29 -0.13,-0.56 -0.42,0.44 -0.92,0.66 -1.51,0.66 -0.52,0 -0.95,-0.15 -1.28,-0.44 -0.33,-0.3 -0.5,-0.67 -0.5,-1.12 0,-0.55 0.21,-0.98 0.63,-1.28 0.42,-0.31 1.01,-0.46 1.77,-0.46l0.88 0 0 -0.42c0,-0.32 -0.09,-0.57 -0.28,-0.76 -0.19,-0.19 -0.47,-0.28 -0.84,-0.28 -0.32,0 -0.59,0.08 -0.81,0.24 -0.22,0.16 -0.33,0.36 -0.33,0.59l-0.91 0c0,-0.26 0.09,-0.52 0.28,-0.77 0.19,-0.25 0.44,-0.44 0.77,-0.58 0.32,-0.14 0.67,-0.22 1.06,-0.22 0.61,0 1.09,0.15 1.43,0.46 0.35,0.3 0.53,0.73 0.54,1.26l0 2.44c0,0.49 0.06,0.87 0.19,1.16l0 0.08 -0.95 0zm-1.5 -0.67c0.28,0 0.55,-0.07 0.81,-0.22 0.26,-0.15 0.44,-0.34 0.55,-0.58l0 -1.1 -0.71 0c-1.11,0 -1.66,0.33 -1.66,0.98 0,0.29 0.09,0.51 0.28,0.67 0.19,0.16 0.43,0.24 0.73,0.24zm6.24 -3.81c-0.14,-0.02 -0.29,-0.04 -0.44,-0.04 -0.59,0 -1,0.25 -1.21,0.76l0 3.76 -0.91 0 0 -5.29 0.88 0 0.02 0.61c0.3,-0.47 0.72,-0.71 1.26,-0.71 0.18,0 0.31,0.02 0.4,0.07l0 0.84zm3.07 1.31c-0.81,-0.23 -1.39,-0.52 -1.76,-0.86 -0.37,-0.34 -0.55,-0.76 -0.55,-1.25 0,-0.56 0.23,-1.03 0.67,-1.39 0.45,-0.37 1.03,-0.55 1.75,-0.55 0.49,0 0.93,0.1 1.31,0.28 0.38,0.19 0.68,0.45 0.89,0.78 0.21,0.33 0.32,0.7 0.32,1.09l-0.94 0c0,-0.43 -0.14,-0.77 -0.41,-1.02 -0.27,-0.25 -0.66,-0.37 -1.16,-0.37 -0.46,0 -0.82,0.1 -1.08,0.31 -0.26,0.21 -0.39,0.49 -0.39,0.85 0,0.29 0.12,0.54 0.37,0.74 0.25,0.2 0.67,0.38 1.26,0.55 0.59,0.17 1.06,0.35 1.39,0.55 0.33,0.2 0.58,0.43 0.74,0.7 0.16,0.27 0.24,0.58 0.24,0.95 0,0.58 -0.23,1.04 -0.67,1.39 -0.45,0.35 -1.05,0.52 -1.81,0.52 -0.49,0 -0.95,-0.09 -1.37,-0.28 -0.42,-0.19 -0.75,-0.45 -0.98,-0.77 -0.23,-0.33 -0.34,-0.7 -0.34,-1.11l0.94 0c0,0.43 0.16,0.77 0.48,1.02 0.32,0.25 0.74,0.37 1.27,0.37 0.5,0 0.88,-0.1 1.14,-0.3 0.27,-0.2 0.4,-0.48 0.4,-0.83 0,-0.35 -0.12,-0.62 -0.37,-0.81 -0.24,-0.19 -0.69,-0.38 -1.33,-0.56zm4.62 -1.48c0.4,-0.49 0.92,-0.74 1.57,-0.74 1.12,0 1.68,0.63 1.69,1.89l0 3.5 -0.91 0 0 -3.5c-0,-0.38 -0.09,-0.66 -0.26,-0.85 -0.17,-0.18 -0.44,-0.27 -0.8,-0.27 -0.29,0 -0.55,0.08 -0.77,0.23 -0.22,0.16 -0.39,0.36 -0.52,0.62l0 3.77 -0.91 0 0 -7.52 0.91 0 0 2.86zm4.37 1.96c0,-0.52 0.1,-0.99 0.31,-1.4 0.2,-0.42 0.49,-0.74 0.85,-0.96 0.36,-0.23 0.78,-0.34 1.24,-0.34 0.72,0 1.3,0.25 1.75,0.75 0.44,0.5 0.67,1.16 0.67,1.99l0 0.06c0,0.52 -0.1,0.98 -0.3,1.39 -0.2,0.41 -0.48,0.73 -0.85,0.96 -0.37,0.23 -0.79,0.34 -1.26,0.34 -0.72,0 -1.3,-0.25 -1.74,-0.75 -0.45,-0.5 -0.67,-1.16 -0.67,-1.98l0 -0.06zm0.91 0.11c0,0.59 0.14,1.06 0.41,1.42 0.27,0.36 0.64,0.53 1.09,0.53 0.46,0 0.83,-0.18 1.1,-0.54 0.27,-0.36 0.41,-0.87 0.41,-1.52 0,-0.58 -0.14,-1.05 -0.41,-1.41 -0.28,-0.36 -0.64,-0.54 -1.1,-0.54 -0.45,0 -0.81,0.18 -1.08,0.53 -0.27,0.36 -0.41,0.87 -0.41,1.53zm9.52 0c0,0.81 -0.19,1.46 -0.55,1.95 -0.37,0.49 -0.87,0.74 -1.5,0.74 -0.64,0 -1.15,-0.2 -1.52,-0.61l0 2.55 -0.91 0 0 -7.33 0.83 0 0.05 0.58c0.37,-0.46 0.88,-0.69 1.54,-0.69 0.64,0 1.14,0.24 1.51,0.72 0.37,0.48 0.56,1.15 0.56,2l0 0.08zm-0.91 -0.1c0,-0.6 -0.13,-1.07 -0.38,-1.41 -0.25,-0.35 -0.6,-0.52 -1.05,-0.52 -0.55,0 -0.96,0.24 -1.23,0.73l0 2.53c0.27,0.48 0.69,0.72 1.24,0.72 0.43,0 0.78,-0.17 1.04,-0.52 0.26,-0.34 0.38,-0.85 0.38,-1.53z"/>
 </g>
</svg>
